<svg width="273" height="36" viewBox="0 0 273 36" fill="none" xmlns="http://www.w3.org/2000/svg">
<g clip-path="url(#clip0)">
<g clip-path="url(#clip1)">
<path d="M191.85 35.37H255.75C258.07 35.37 260.368 34.913 262.512 34.025C264.656 33.137 266.604 31.8354 268.245 30.1946C269.885 28.5538 271.187 26.6058 272.075 24.462C272.963 22.3182 273.42 20.0205 273.42 17.7V17.7C273.424 15.377 272.97 13.0761 272.084 10.9288C271.197 8.78148 269.896 6.83002 268.255 5.18603C266.614 3.54203 264.665 2.23779 262.519 1.34791C260.373 0.458037 258.073 -3.34799e-06 255.75 0L191.85 0C189.527 -3.34799e-06 187.227 0.458037 185.081 1.34791C182.935 2.23779 180.986 3.54203 179.345 5.18603C177.704 6.83002 176.403 8.78148 175.516 10.9288C174.63 13.0761 174.176 15.377 174.18 17.7V17.7C174.18 22.3864 176.042 26.8808 179.355 30.1946C182.669 33.5083 187.164 35.37 191.85 35.37ZM10.1 35.42H17.9V6.92H28V0H0V6.9H10.1V35.42ZM38.2 35.42H46V8.25H46.1L55.05 35.4H61.05L70.3 8.25H70.4V35.4H78.2V0H66.45L58.25 23.1H58.15L50 0H38.2V35.42ZM89.14 0.12H100.84C103.564 0.124186 106.277 0.45999 108.92 1.12C111.327 1.69095 113.595 2.73822 115.59 4.2C117.52 5.65108 119.073 7.54408 120.12 9.72C121.303 12.3051 121.875 15.1282 121.79 17.97C121.844 20.588 121.29 23.1828 120.17 25.55C119.127 27.6801 117.633 29.5571 115.79 31.05C113.904 32.5623 111.75 33.7056 109.44 34.42C106.999 35.1951 104.451 35.5832 101.89 35.57H89.14V0.12ZM96.94 28.32H100.94C102.622 28.3315 104.3 28.1469 105.94 27.77C107.403 27.4731 108.787 26.8698 110 26C111.158 25.1236 112.079 23.9722 112.68 22.65C113.382 21.0506 113.724 19.3162 113.68 17.57C113.71 16.0054 113.367 14.4561 112.68 13.05C112.056 11.8039 111.157 10.7164 110.05 9.87C108.9 9.01566 107.601 8.38165 106.22 8C104.697 7.57407 103.122 7.36204 101.54 7.37H96.94V28.32ZM133.09 0.12H146.29C147.839 0.120755 149.386 0.23103 150.92 0.45C152.375 0.638461 153.786 1.07834 155.09 1.75C156.308 2.38214 157.342 3.31928 158.09 4.47C158.92 5.8742 159.32 7.49089 159.24 9.12C159.309 10.9341 158.715 12.7112 157.57 14.12C156.401 15.4736 154.861 16.4541 153.14 16.94V17C154.247 17.1581 155.321 17.4959 156.32 18C157.242 18.463 158.072 19.0899 158.77 19.85C159.461 20.6112 159.995 21.5016 160.34 22.47C160.712 23.4954 160.899 24.5791 160.89 25.67C160.95 27.3131 160.533 28.9385 159.69 30.35C158.906 31.5787 157.844 32.6062 156.59 33.35C155.272 34.1412 153.828 34.6994 152.32 35C150.765 35.3333 149.18 35.5009 147.59 35.5H133.09V0.12ZM140.89 14.27H146.54C147.139 14.2733 147.737 14.2061 148.32 14.07C148.878 13.9488 149.41 13.7287 149.89 13.42C150.359 13.1178 150.746 12.7059 151.02 12.22C151.313 11.6663 151.458 11.0462 151.44 10.42C151.472 9.78358 151.319 9.15146 151 8.6C150.69 8.12747 150.267 7.73922 149.77 7.47C149.213 7.19022 148.616 6.99796 148 6.9C147.39 6.78211 146.771 6.72185 146.15 6.72H140.85L140.89 14.27ZM140.89 28.92H147.89C148.506 28.9216 149.119 28.8546 149.72 28.72C150.317 28.5979 150.884 28.3601 151.39 28.02C151.895 27.687 152.315 27.2422 152.62 26.72C152.948 26.1238 153.111 25.4504 153.09 24.77C153.117 24.0522 152.898 23.3468 152.47 22.77C152.05 22.251 151.507 21.8453 150.89 21.59C150.249 21.3231 149.577 21.1383 148.89 21.04C148.211 20.9436 147.526 20.8934 146.84 20.89H140.94L140.89 28.92Z" fill="url(#paint0_linear)"/>
</g>
<path d="M203.579 15V8.48H205.819C206.179 8.48 206.515 8.51667 206.829 8.59C207.142 8.65667 207.415 8.77333 207.649 8.94C207.882 9.1 208.065 9.31667 208.199 9.59C208.339 9.85667 208.409 10.1867 208.409 10.58C208.409 10.96 208.339 11.29 208.199 11.57C208.065 11.85 207.882 12.08 207.649 12.26C207.415 12.44 207.145 12.5733 206.839 12.66C206.532 12.7467 206.205 12.79 205.859 12.79H205.049V15H203.579ZM205.049 11.62H205.769C206.569 11.62 206.969 11.2733 206.969 10.58C206.969 10.24 206.862 10 206.649 9.86C206.435 9.72 206.129 9.65 205.729 9.65H205.049V11.62ZM212.186 15.12C211.746 15.12 211.342 15.0433 210.976 14.89C210.616 14.73 210.306 14.5033 210.046 14.21C209.786 13.9167 209.582 13.56 209.436 13.14C209.296 12.72 209.226 12.2433 209.226 11.71C209.226 11.1767 209.296 10.7033 209.436 10.29C209.582 9.87 209.786 9.52 210.046 9.24C210.306 8.95333 210.616 8.73667 210.976 8.59C211.342 8.43667 211.746 8.36 212.186 8.36C212.626 8.36 213.026 8.43667 213.386 8.59C213.752 8.73667 214.066 8.95333 214.326 9.24C214.586 9.52667 214.786 9.88 214.926 10.3C215.072 10.7133 215.146 11.1833 215.146 11.71C215.146 12.2433 215.072 12.72 214.926 13.14C214.786 13.56 214.586 13.9167 214.326 14.21C214.066 14.5033 213.752 14.73 213.386 14.89C213.026 15.0433 212.626 15.12 212.186 15.12ZM212.186 13.85C212.632 13.85 212.986 13.66 213.246 13.28C213.506 12.8933 213.636 12.37 213.636 11.71C213.636 11.0567 213.506 10.5467 213.246 10.18C212.986 9.81333 212.632 9.63 212.186 9.63C211.739 9.63 211.386 9.81333 211.126 10.18C210.866 10.5467 210.736 11.0567 210.736 11.71C210.736 12.37 210.866 12.8933 211.126 13.28C211.386 13.66 211.739 13.85 212.186 13.85ZM216.372 15V8.48H218.612C218.972 8.48 219.308 8.51667 219.622 8.59C219.935 8.65667 220.208 8.77333 220.442 8.94C220.675 9.1 220.858 9.31667 220.992 9.59C221.132 9.85667 221.202 10.1867 221.202 10.58C221.202 10.96 221.132 11.29 220.992 11.57C220.858 11.85 220.675 12.08 220.442 12.26C220.208 12.44 219.938 12.5733 219.632 12.66C219.325 12.7467 218.998 12.79 218.652 12.79H217.842V15H216.372ZM217.842 11.62H218.562C219.362 11.62 219.762 11.2733 219.762 10.58C219.762 10.24 219.655 10 219.442 9.86C219.228 9.72 218.922 9.65 218.522 9.65H217.842V11.62ZM224.899 15.12C224.052 15.12 223.405 14.87 222.959 14.37C222.512 13.87 222.289 13.0733 222.289 11.98V8.48H223.769V12.13C223.769 12.77 223.865 13.2167 224.059 13.47C224.252 13.7233 224.532 13.85 224.899 13.85C225.265 13.85 225.549 13.7233 225.749 13.47C225.949 13.2167 226.049 12.77 226.049 12.13V8.48H227.469V11.98C227.469 13.0733 227.249 13.87 226.809 14.37C226.375 14.87 225.739 15.12 224.899 15.12ZM228.979 15V8.48H230.449V13.76H233.029V15H228.979ZM235.626 11.7L235.466 12.3H236.856L236.706 11.7C236.613 11.3733 236.523 11.0267 236.436 10.66C236.35 10.2933 236.263 9.94 236.176 9.6H236.136C236.056 9.94667 235.973 10.3033 235.886 10.67C235.806 11.03 235.72 11.3733 235.626 11.7ZM233.266 15L235.306 8.48H237.076L239.116 15H237.556L237.156 13.45H235.166L234.766 15H233.266ZM239.829 15V8.48H242.179C242.525 8.48 242.849 8.51333 243.149 8.58C243.455 8.64667 243.722 8.76 243.949 8.92C244.175 9.07333 244.355 9.28 244.489 9.54C244.622 9.8 244.689 10.1233 244.689 10.51C244.689 10.99 244.582 11.3867 244.369 11.7C244.162 12.0067 243.882 12.2367 243.529 12.39L245.009 15H243.359L242.109 12.65H241.299V15H239.829ZM241.299 11.48H242.059C242.445 11.48 242.739 11.4 242.939 11.24C243.145 11.0733 243.249 10.83 243.249 10.51C243.249 10.19 243.145 9.96667 242.939 9.84C242.739 9.71333 242.445 9.65 242.059 9.65H241.299V11.48ZM207.792 28V21.48H209.402L210.452 24.38C210.519 24.5733 210.582 24.7733 210.642 24.98C210.702 25.18 210.766 25.38 210.832 25.58H210.872C210.939 25.38 210.999 25.18 211.052 24.98C211.112 24.7733 211.176 24.5733 211.242 24.38L212.272 21.48H213.872V28H212.532V25.61C212.532 25.45 212.539 25.2733 212.552 25.08C212.566 24.8867 212.582 24.6933 212.602 24.5C212.622 24.3 212.642 24.1067 212.662 23.92C212.682 23.7267 212.702 23.55 212.722 23.39H212.682L212.152 24.94L211.222 27.43H210.412L209.482 24.94L208.962 23.39H208.922C208.942 23.55 208.962 23.7267 208.982 23.92C209.002 24.1067 209.022 24.3 209.042 24.5C209.062 24.6933 209.079 24.8867 209.092 25.08C209.106 25.2733 209.112 25.45 209.112 25.61V28H207.792ZM218.06 28.12C217.62 28.12 217.216 28.0433 216.85 27.89C216.49 27.73 216.18 27.5033 215.92 27.21C215.66 26.9167 215.456 26.56 215.31 26.14C215.17 25.72 215.1 25.2433 215.1 24.71C215.1 24.1767 215.17 23.7033 215.31 23.29C215.456 22.87 215.66 22.52 215.92 22.24C216.18 21.9533 216.49 21.7367 216.85 21.59C217.216 21.4367 217.62 21.36 218.06 21.36C218.5 21.36 218.9 21.4367 219.26 21.59C219.626 21.7367 219.94 21.9533 220.2 22.24C220.46 22.5267 220.66 22.88 220.8 23.3C220.946 23.7133 221.02 24.1833 221.02 24.71C221.02 25.2433 220.946 25.72 220.8 26.14C220.66 26.56 220.46 26.9167 220.2 27.21C219.94 27.5033 219.626 27.73 219.26 27.89C218.9 28.0433 218.5 28.12 218.06 28.12ZM218.06 26.85C218.506 26.85 218.86 26.66 219.12 26.28C219.38 25.8933 219.51 25.37 219.51 24.71C219.51 24.0567 219.38 23.5467 219.12 23.18C218.86 22.8133 218.506 22.63 218.06 22.63C217.613 22.63 217.26 22.8133 217 23.18C216.74 23.5467 216.61 24.0567 216.61 24.71C216.61 25.37 216.74 25.8933 217 26.28C217.26 26.66 217.613 26.85 218.06 26.85ZM223.278 28L221.308 21.48H222.868L223.648 24.52C223.748 24.88 223.835 25.23 223.908 25.57C223.988 25.9033 224.078 26.25 224.178 26.61H224.218C224.311 26.25 224.398 25.9033 224.478 25.57C224.558 25.23 224.645 24.88 224.738 24.52L225.508 21.48H227.008L225.048 28H223.278ZM227.705 28V21.48H229.175V28H227.705ZM230.712 28V21.48H234.792V22.72H232.182V24.03H234.402V25.26H232.182V26.76H234.892V28H230.712ZM238.181 28.12C237.754 28.12 237.328 28.0433 236.901 27.89C236.481 27.73 236.104 27.4933 235.771 27.18L236.611 26.17C236.844 26.37 237.101 26.5333 237.381 26.66C237.668 26.7867 237.948 26.85 238.221 26.85C238.528 26.85 238.754 26.7933 238.901 26.68C239.054 26.5667 239.131 26.4133 239.131 26.22C239.131 26.12 239.108 26.0333 239.061 25.96C239.021 25.8867 238.958 25.8233 238.871 25.77C238.791 25.71 238.691 25.6567 238.571 25.61C238.458 25.5567 238.331 25.5 238.191 25.44L237.341 25.08C237.174 25.0133 237.011 24.9267 236.851 24.82C236.698 24.7133 236.558 24.59 236.431 24.45C236.311 24.3033 236.214 24.1367 236.141 23.95C236.068 23.7567 236.031 23.54 236.031 23.3C236.031 23.0333 236.088 22.7833 236.201 22.55C236.314 22.31 236.474 22.1033 236.681 21.93C236.888 21.75 237.131 21.61 237.411 21.51C237.698 21.41 238.011 21.36 238.351 21.36C238.731 21.36 239.104 21.4333 239.471 21.58C239.844 21.7267 240.171 21.94 240.451 22.22L239.701 23.15C239.488 22.9833 239.274 22.8567 239.061 22.77C238.848 22.6767 238.611 22.63 238.351 22.63C238.098 22.63 237.894 22.6833 237.741 22.79C237.594 22.89 237.521 23.0333 237.521 23.22C237.521 23.32 237.544 23.4067 237.591 23.48C237.644 23.5467 237.714 23.61 237.801 23.67C237.894 23.7233 238.001 23.7767 238.121 23.83C238.241 23.8767 238.371 23.93 238.511 23.99L239.351 24.33C239.751 24.49 240.064 24.71 240.291 24.99C240.524 25.27 240.641 25.64 240.641 26.1C240.641 26.3733 240.584 26.6333 240.471 26.88C240.364 27.12 240.204 27.3333 239.991 27.52C239.784 27.7 239.528 27.8467 239.221 27.96C238.914 28.0667 238.568 28.12 238.181 28.12Z" fill="white"/>
</g>
<defs>
<linearGradient id="paint0_linear" x1="0" y1="17.76" x2="273.42" y2="17.76" gradientUnits="userSpaceOnUse">
<stop stop-color="#90CEA1"/>
<stop offset="0.56" stop-color="#3CBEC9"/>
<stop offset="1" stop-color="#00B3E5"/>
</linearGradient>
<clipPath id="clip0">
<rect width="273" height="36" fill="white"/>
</clipPath>
<clipPath id="clip1">
<rect width="273.42" height="35.52" fill="white"/>
</clipPath>
</defs>
</svg>
